<svg width="20" height="20" viewBox="0 0 20 20" fill="none" xmlns="http://www.w3.org/2000/svg">
<path d="M10 20C8.64583 20 7.35026 19.7363 6.11328 19.209C4.8763 18.6816 3.81185 17.972 2.91992 17.0801C2.02799 16.1882 1.31836 15.1237 0.791016 13.8867C0.263672 12.6497 0 11.3542 0 10H1.25C1.25 8.8151 1.48112 7.68229 1.94336 6.60156C2.4056 5.52083 3.02734 4.58984 3.80859 3.80859C4.58984 3.02734 5.52083 2.4056 6.60156 1.94336C7.68229 1.48112 8.8151 1.25 10 1.25V0C11.3542 0 12.6497 0.263672 13.8867 0.791016C15.1237 1.31836 16.1882 2.02799 17.0801 2.91992C17.972 3.81185 18.6816 4.8763 19.209 6.11328C19.7363 7.35026 20 8.64583 20 10C20 11.3542 19.7363 12.6497 19.209 13.8867C18.6816 15.1237 17.972 16.1882 17.0801 17.0801C16.1882 17.972 15.1237 18.6816 13.8867 19.209C12.6497 19.7363 11.3542 20 10 20ZM2.5 10H3.75C3.75 11.1328 4.02995 12.1777 4.58984 13.1348C5.14974 14.0918 5.9082 14.8503 6.86523 15.4102C7.82227 15.9701 8.86719 16.25 10 16.25C11.1328 16.25 12.1777 15.9701 13.1348 15.4102C14.0918 14.8503 14.8503 14.0918 15.4102 13.1348C15.9701 12.1777 16.25 11.1328 16.25 10C16.25 8.86719 15.9701 7.82227 15.4102 6.86523C14.8503 5.9082 14.0918 5.14974 13.1348 4.58984C12.1777 4.02995 11.1328 3.75 10 3.75V2.5C8.64583 2.5 7.39258 2.83529 6.24023 3.50586C5.08789 4.17643 4.17643 5.08789 3.50586 6.24023C2.83529 7.39258 2.5 8.64583 2.5 10Z" fill="white"/>
</svg>
