<svg width="45" height="45" viewBox="0 0 45 45" fill="none" xmlns="http://www.w3.org/2000/svg">
<path d="M0 14.7656V13.3594C0 12.1944 0.944385 11.25 2.10938 11.25H33.75V7.03125C33.75 5.15329 36.0263 4.21506 37.351 5.53966L44.3822 12.5709C45.2059 13.3947 45.2059 14.7303 44.3822 15.554L37.351 22.5853C36.0313 23.9047 33.75 22.9795 33.75 21.0938V16.875H2.10938C0.944385 16.875 0 15.9306 0 14.7656ZM42.8906 28.125H11.25V23.9062C11.25 22.0329 8.97697 21.0867 7.64903 22.4147L0.617783 29.4459C-0.205928 30.2697 -0.205928 31.6053 0.617783 32.429L7.64903 39.4603C8.96985 40.781 11.25 39.8529 11.25 37.9688V33.75H42.8906C44.0556 33.75 45 32.8056 45 31.6406V30.2344C45 29.0694 44.0556 28.125 42.8906 28.125Z" fill="url(#paint0_linear)"/>
<defs>
<linearGradient id="paint0_linear" x1="-8.5061" y1="56.1086" x2="60.4331" y2="19.5242" gradientUnits="userSpaceOnUse">
<stop stop-color="#FF512F"/>
<stop offset="1" stop-color="#F09819"/>
</linearGradient>
</defs>
</svg>
